# xmcd
#
# Track frame offsets: 
#        150
#        24324
#        42083
#        58396
#        76420
#        97668
#        116642
#        132538
#        149155
#        164894
#        186589
#        202928
#        224464
#        241038
#        264543
#        284744
#        302749
#
# Disc length: 4359 seconds
#
# Revision: 0
# Processed by: cddbd v1.5.2PL0 Copyright (c) Steve Scherf et al.
# Submitted via: ExactAudioCopy v0.95b4
#
DISCID=0a110511
DTITLE=Various Artist - Don´s Black Vol 11
DYEAR=1900
DGENRE=
TTITLE0=Lauryn Hill - Doo wop
TTITLE1=89 Degrees - Because of you
TTITLE2=All Saints - Bootie Call
TTITLE3=Billy - Girlfriend
TTITLE4=Brandy and Monica - Top of the world
TTITLE5=Dru Hill vs Redman - How deep is your love
TTITLE6=Fatboy Slim - Gangstar trippin
TTITLE7=Another Level - Freak me
TTITLE8=Mel B feat. Missy - I want you back
TTITLE9=Monifah - Touch it
TTITLE10=Oli P. - Flugzeuge in meinem Bauch
TTITLE11=Public Enemy - He got the game
TTITLE12=Rapublica - Ti amo ´98
TTITLE13=Tatjana Ali, Daydreaming
TTITLE14=Naughty by nature - Hip Hop Hurray
TTITLE15=Busta Rhymes - Turn it up
TTITLE16=LL Cool J - I need love
EXTD=
EXTT0=
EXTT1=
EXTT2=
EXTT3=
EXTT4=
EXTT5=
EXTT6=
EXTT7=
EXTT8=
EXTT9=
EXTT10=
EXTT11=
EXTT12=
EXTT13=
EXTT14=
EXTT15=
EXTT16=
PLAYORDER=
